<?xml version="1.0" encoding="UTF-8" standalone="no"?>
<!DOCTYPE svg PUBLIC "-//W3C//DTD SVG 1.1//EN" "http://www.w3.org/Graphics/SVG/1.1/DTD/svg11.dtd">
<svg width="100%" height="100%" viewBox="0 0 1000 1000" version="1.1" xmlns="http://www.w3.org/2000/svg" xmlns:xlink="http://www.w3.org/1999/xlink" xml:space="preserve" style="fill-rule:evenodd;clip-rule:evenodd;stroke-linejoin:round;stroke-miterlimit:1.41421;">
    <g transform="matrix(0.97637,0,0,0.97637,4438.6,11034.7)">
        <g transform="matrix(1.0242,0,0,1.0242,-4546.02,-11271.5)">
            <path d="M1000,122.326C1000,38.516 931.957,-29.528 848.146,-29.528L151.854,-29.528C68.043,-29.528 0,38.516 0,122.326L0,818.619C0,902.429 68.043,970.472 151.854,970.472L848.146,970.472C931.957,970.472 1000,902.429 1000,818.619L1000,122.326Z" style="fill:rgb(252,183,23);"/>
        </g>
        <g transform="matrix(1,0,0,1,-11761,-25407.4)">
            <path d="M7342,14646C7330.44,14636 7326.95,14623.6 7342,14609C7372.89,14608.4 7396.07,14598.9 7407,14575C7412.3,14563.1 7417.81,14552.2 7426,14553C7430.31,14548.4 7435.17,14545.3 7442,14547C7447.07,14545.1 7452.09,14544.8 7457,14548C7466.15,14546.6 7474.22,14548.7 7481,14555L7522,14555C7537.2,14536.2 7598.02,14516.7 7628,14514L7635,14509C7656.66,14492.4 7677.99,14475.1 7699,14457L7768,14382L7811,14344L7875,14294L7914,14273L7947,14252L7986,14230L8028,14210L8057,14196L8133,14172L8133,14181C8126.17,14185.5 8121.69,14190.4 8121,14196C8113.17,14204.1 8107.09,14212.4 8103,14221C8094.86,14228 8089.69,14235.4 8088,14243C8078.74,14253.7 8068.7,14268 8059,14284C8044.39,14309.7 8023.61,14334.6 8000,14359L7953,14398L7924,14425L7912,14441L7897,14457L7890,14467L7881,14475C7874.38,14488 7863.21,14499.1 7849,14509C7844.3,14514.2 7839.62,14518.6 7835,14522L7827,14531C7822.7,14532.7 7820.43,14535.4 7820,14539L7796,14562C7792.24,14567.7 7790.77,14573.6 7796,14580C7800.26,14583.9 7804.16,14588.3 7811,14589C7822.03,14597.7 7834.33,14603.8 7849,14605C7894.7,14604.9 7940.38,14602.2 7986,14595C7999.6,14592.3 8013.45,14589.2 8018.38,14597.2C8023.17,14602.8 8025.57,14609.3 8021,14618C8019.07,14628.2 8018.47,14639 8019.6,14650.3C8017.3,14664.4 8011.72,14672.6 8000,14670C7968.17,14664.5 7934.75,14662.5 7898.83,14666C7872.07,14666.9 7844.87,14666.3 7819.13,14670.6L7771.88,14682.1C7750.02,14686.9 7731.34,14686.5 7715.44,14681.6L7687.59,14676.1C7677.6,14674 7669.1,14677 7661.98,14684.9C7651.86,14693.8 7644.03,14703.4 7640,14714C7638.62,14717.5 7602.48,14742.7 7593.07,14757.6C7566.71,14774.1 7479.3,14862.5 7475,14882L7451,14921C7443.96,14930.5 7436.63,14939.9 7432,14950C7423.44,14962.1 7415.2,14973.2 7407.4,14982.9C7398.89,14989.8 7390.8,14997.7 7383.53,15007.6C7378.89,15012.4 7374.13,15018.3 7369.36,15024.3C7365.98,15025.1 7363.54,15026.6 7362.61,15029.6C7353.61,15038.9 7344.84,15048 7321.27,15063.6C7320.52,15034.3 7326.17,15005.5 7335.04,14976.9C7341.45,14951.3 7349.96,14926.5 7359.25,14901.8C7366.22,14883.4 7383.24,14835.2 7407.01,14792.7C7416.69,14775.4 7428.96,14762 7438.28,14754.1C7445.06,14747.5 7451.07,14740.6 7455.86,14733.3L7486.72,14695.6L7502.11,14678.6C7507.63,14669.2 7513.58,14663 7519.88,14659.3C7530.63,14648.8 7531.59,14641.5 7522.51,14637.6L7485.56,14627.6C7476.74,14629.4 7469.63,14628.8 7464.07,14625.9C7454.69,14626.3 7445.69,14625.9 7438.46,14621.5C7427.01,14620 7415.41,14619.2 7403.07,14621.6L7383.64,14625.7C7351.47,14636.1 7339.56,14642.5 7342,14646Z" style="fill:white;"/>
        </g>
        <g transform="matrix(0.258429,-0.0316019,0.031644,0.258773,-7339.05,-14302.5)">
            <path d="M10214.4,14450.4L10223,14457.5C10249,14456 10253.7,14478.1 10233.9,14526.8C10214.7,14526.9 10209,14548.3 10221.1,14558L10138.2,14765.4L10186.6,14778.3L10234.2,14561.5C10250.5,14558.7 10254.9,14537.4 10241.5,14529C10269.3,14465.8 10245,14443 10214.4,14450.4ZM9812.7,14525.5C9941.02,14516.9 10037.3,14554.4 10120.4,14606L10146,14523.1C10152,14503.8 10146,14496.1 10132,14488C10053.4,14441 9966.04,14420.5 9872.55,14418.3C9852.71,14418.6 9839.48,14425.1 9836.88,14441.5L9812.7,14525.5ZM9808.29,14490.3L9828.89,14426.3C9830.99,14418.6 9835.64,14413.6 9847.4,14410C9904.72,14390.8 10076,14425.2 10152.9,14486.9C10159.7,14494 10164.3,14501.7 10163.1,14510.9L10142.7,14576.3L10202.5,14569.6L10206.8,14560C10197.4,14544.6 10204.3,14523.8 10224.8,14514.3L10232.8,14487C10234.1,14481.5 10230,14478.8 10227.7,14477L10046,14351C10036.9,14343.8 10025.6,14342.8 10012.9,14343.9C9905.66,14352.2 9798.75,14363.1 9691.98,14375C9682.26,14377.4 9677.57,14389.9 9682.29,14394.7C9701.15,14413.6 9808.29,14490.3 9808.29,14490.3ZM10263.2,14504.3L10256.6,14524.9C10265.6,14537 10263.8,14549.9 10255.1,14563.1C10255.1,14563.1 10292.7,14559.5 10302.5,14557.5C10311.5,14555.6 10316.5,14543.2 10308.2,14537.2C10299.4,14530.7 10263.2,14504.3 10263.2,14504.3Z" style="fill:rgb(40,182,233);"/>
        </g>
    </g>
</svg>
